<?xml version="1.0" standalone="no"?>
<!DOCTYPE svg PUBLIC "-//W3C//DTD SVG 20010904//EN"
 "http://www.w3.org/TR/2001/REC-SVG-20010904/DTD/svg10.dtd">
<svg version="1.0" xmlns="http://www.w3.org/2000/svg"
 width="512.000000pt" height="512.000000pt" viewBox="0 0 512.000000 512.000000"
 preserveAspectRatio="xMidYMid meet">
<metadata>
Created by potrace 1.11, written by Peter Selinger 2001-2013
</metadata>
<g transform="translate(0.000000,512.000000) scale(0.100000,-0.100000)"
fill="#000000" stroke="none">
<path d="M1226 4055 c-54 -19 -106 -63 -141 -120 l-30 -48 0 -527 0 -527 30
-48 c36 -59 101 -110 155 -125 26 -7 210 -10 542 -8 494 3 504 3 543 25 53 28
99 78 124 133 20 43 21 64 21 550 l0 505 -24 50 c-24 52 -72 101 -129 132 -29
16 -76 18 -542 20 -416 2 -517 0 -549 -12z m598 -376 c24 -28 26 -38 26 -129
l0 -98 104 -4 c94 -3 107 -5 130 -27 18 -17 26 -35 26 -57 0 -76 -31 -94 -165
-94 l-95 0 0 -95 c0 -134 -18 -165 -95 -165 -25 0 -40 8 -59 31 -24 28 -26 38
-26 130 l0 99 -96 0 c-127 0 -163 20 -164 91 0 26 7 42 26 60 23 22 36 24 129
27 l103 4 4 103 c3 93 5 106 27 129 36 38 91 36 125 -5z"/>
<path d="M2840 4061 c-75 -23 -136 -78 -169 -151 -20 -43 -21 -64 -21 -550 0
-486 1 -507 21 -550 25 -55 71 -105 124 -133 40 -22 46 -22 565 -22 l525 0 47
27 c58 35 103 88 123 147 22 67 22 995 0 1062 -20 59 -65 112 -123 147 l-47
27 -510 2 c-280 1 -521 -2 -535 -6z m844 -640 c29 -27 35 -83 13 -112 -28 -36
-51 -39 -337 -39 -338 0 -351 3 -350 93 1 38 17 63 51 76 14 6 140 9 311 8
l286 -2 26 -24z"/>
<path d="M1227 2456 c-46 -17 -99 -57 -127 -95 -49 -70 -50 -81 -50 -595 0
-296 4 -495 10 -518 18 -63 70 -129 130 -162 l55 -31 515 0 515 0 54 30 c66
36 116 101 131 170 8 34 10 208 8 540 -3 455 -4 492 -22 525 -26 49 -74 98
-121 123 -39 22 -48 22 -550 24 -409 2 -517 0 -548 -11z m461 -498 l72 -72 73
71 c39 40 84 75 98 78 57 14 120 -52 104 -107 -4 -13 -39 -56 -78 -95 l-71
-73 71 -72 c40 -40 75 -85 78 -99 14 -57 -52 -120 -107 -104 -13 4 -56 39 -95
78 l-73 71 -72 -71 c-40 -39 -83 -74 -96 -78 -55 -16 -121 47 -107 104 3 14
38 59 78 98 l71 73 -66 67 c-36 38 -71 78 -77 91 -17 32 3 88 37 107 46 26 81
11 160 -67z"/>
<path d="M2840 2461 c-69 -22 -130 -73 -166 -141 -18 -33 -19 -70 -22 -525 -2
-332 0 -506 8 -540 15 -69 65 -134 131 -170 l54 -30 515 0 515 0 55 31 c60 33
112 99 130 162 6 23 10 221 10 518 0 528 -1 534 -61 607 -17 20 -52 49 -77 65
l-47 27 -510 2 c-280 1 -521 -2 -535 -6z m844 -460 c35 -33 36 -92 1 -126
l-24 -25 -301 0 -301 0 -24 25 c-46 46 -31 120 30 146 11 4 149 7 307 6 l286
-2 26 -24z m1 -356 c35 -34 34 -93 -1 -126 l-26 -24 -299 0 -299 0 -27 27
c-38 38 -37 92 1 124 l27 24 300 0 300 0 24 -25z"/>
</g>
</svg>
